<?xml version="1.0" ?><svg id="LineColor" style="enable-background:new 0 0 64 64;" version="1.1" viewBox="0 0 64 64" xml:space="preserve" xmlns="http://www.w3.org/2000/svg" xmlns:xlink="http://www.w3.org/1999/xlink"><circle cx="32" cy="32" r="31" style="fill:#FFD572;"/><polygon points="32,55 12,45 12,19 32,9 52,19 52,45 " style="fill:#FCB765;"/><path d="M32,64C14.355,64,0,49.645,0,32S14.355,0,32,0s32,14.355,32,32S49.645,64,32,64z M32,2  C15.458,2,2,15.458,2,32s13.458,30,30,30s30-13.458,30-30S48.542,2,32,2z" style="fill:#3B3344;"/><path d="M49.333,12.62c-2.281-2.042-4.873-3.649-7.704-4.779l0.741-1.857c3.049,1.216,5.84,2.948,8.296,5.146  L49.333,12.62z" style="fill:#3B3344;"/><path d="M39.704,7.16c-0.945-0.292-1.917-0.533-2.888-0.715l0.368-1.966c1.046,0.196,2.093,0.456,3.112,0.771  L39.704,7.16z" style="fill:#3B3344;"/><rect height="10" style="fill:#3B3344;" width="2" x="18" y="20"/><rect height="10" style="fill:#3B3344;" width="2" x="34" y="20"/><path d="M30,30h-6c-0.552,0-1-0.448-1-1v-8c0-0.552,0.448-1,1-1h6c0.552,0,1,0.448,1,1v8  C31,29.552,30.552,30,30,30z M25,28h4v-6h-4V28z" style="fill:#3B3344;"/><path d="M25,44h-6c-0.552,0-1-0.448-1-1v-8c0-0.552,0.448-1,1-1h6c0.552,0,1,0.448,1,1v8  C26,43.552,25.552,44,25,44z M20,42h4v-6h-4V42z" style="fill:#3B3344;"/><path d="M46,30h-6c-0.552,0-1-0.448-1-1v-8c0-0.552,0.448-1,1-1h6c0.552,0,1,0.448,1,1v8  C47,29.552,46.552,30,46,30z M41,28h4v-6h-4V28z" style="fill:#3B3344;"/><rect height="10" style="fill:#3B3344;" width="2" x="29" y="34"/><rect height="10" style="fill:#3B3344;" width="2" x="34" y="34"/><path d="M46,44h-6c-0.552,0-1-0.448-1-1v-8c0-0.552,0.448-1,1-1h6c0.552,0,1,0.448,1,1v8  C47,43.552,46.552,44,46,44z M41,42h4v-6h-4V42z" style="fill:#3B3344;"/><path d="M32,56c-0.153,0-0.307-0.035-0.447-0.105l-20-10C11.214,45.725,11,45.379,11,45V19  c0-0.379,0.214-0.725,0.553-0.895l20-10c0.281-0.141,0.613-0.141,0.895,0l20,10C52.786,18.275,53,18.621,53,19v26  c0,0.379-0.214,0.725-0.553,0.895l-20,10C32.307,55.965,32.153,56,32,56z M13,44.382l19,9.5l19-9.5V19.618l-19-9.5l-19,9.5V44.382z" style="fill:#3B3344;"/></svg>